<svg xmlns="http://www.w3.org/2000/svg" viewBox="-8 -11 674 169"><g transform="translate(75 73) scale(1.0417) translate(-100 -100)"><path d="M100,28 A72,72 0 0 0 100,172 Z" fill="#ECEEF1"/><g fill="#FF5A1F"><circle cx="109" cy="44.6" r="5.8"/><circle cx="109" cy="58.4" r="5.8"/><circle cx="109" cy="72.3" r="5.8"/><circle cx="109" cy="86.1" r="5.8"/><circle cx="109" cy="100" r="5.8"/><circle cx="109" cy="113.9" r="5.8"/><circle cx="109" cy="127.7" r="5.8"/><circle cx="109" cy="141.6" r="5.8"/><circle cx="109" cy="155.4" r="5.8"/><circle cx="121" cy="37.6" r="5.05"/><circle cx="121" cy="51.5" r="5.05"/><circle cx="121" cy="65.4" r="5.05"/><circle cx="121" cy="79.2" r="5.05"/><circle cx="121" cy="93.1" r="5.05"/><circle cx="121" cy="106.9" r="5.05"/><circle cx="121" cy="120.8" r="5.05"/><circle cx="121" cy="134.6" r="5.05"/><circle cx="121" cy="148.5" r="5.05"/><circle cx="121" cy="162.4" r="5.05"/><circle cx="133" cy="44.6" r="4.3"/><circle cx="133" cy="58.4" r="4.3"/><circle cx="133" cy="72.3" r="4.3"/><circle cx="133" cy="86.1" r="4.3"/><circle cx="133" cy="100" r="4.3"/><circle cx="133" cy="113.9" r="4.3"/><circle cx="133" cy="127.7" r="4.3"/><circle cx="133" cy="141.6" r="4.3"/><circle cx="133" cy="155.4" r="4.3"/><circle cx="145" cy="51.5" r="3.55"/><circle cx="145" cy="65.4" r="3.55"/><circle cx="145" cy="79.2" r="3.55"/><circle cx="145" cy="93.1" r="3.55"/><circle cx="145" cy="106.9" r="3.55"/><circle cx="145" cy="120.8" r="3.55"/><circle cx="145" cy="134.6" r="3.55"/><circle cx="145" cy="148.5" r="3.55"/><circle cx="157" cy="72.3" r="2.8"/><circle cx="157" cy="86.1" r="2.8"/><circle cx="157" cy="100" r="2.8"/><circle cx="157" cy="113.9" r="2.8"/><circle cx="157" cy="127.7" r="2.8"/><circle cx="169" cy="93.1" r="2.05"/><circle cx="169" cy="106.9" r="2.05"/></g></g><g transform="translate(206 0)" fill="#ECEEF1"><rect x="0" y="0" width="18" height="100"/><rect x="70" y="0" width="18" height="100"/><polygon points="0,0 22,0 88,100 66,100"/><polygon points="112,100 149,0 171,0 208,100 188,100 160,24 132,100"/><polygon points="211,0 231,0 259,76 287,0 307,0 270,100 248,100"/><polygon points="310,100 347,0 369,0 406,100 386,100 358,24 330,100"/><rect x="430" y="0" width="18" height="100"/></g><g transform="translate(206 0)" fill="#8B95A3"><path d="M43.604 146.432Q40.436 146.432 38.096000000000004 145.38799999999998Q35.756 144.344 34.316 142.544L37.448 139.088Q38.816 140.6 40.454 141.32Q42.092 142.04 43.784000000000006 142.04Q45.728 142.04 46.736000000000004 141.176Q47.744 140.312 47.744 138.692Q47.744 137.36 46.97 136.676Q46.196 135.992 44.36 135.704L41.732 135.272Q38.348 134.696 36.836 132.76999999999998Q35.324000000000005 130.844 35.324000000000005 128.072Q35.324000000000005 124.436 37.7 122.438Q40.076 120.44 44.36 120.44Q47.276 120.44 49.43600000000001 121.34Q51.596000000000004 122.24000000000001 52.928 123.788L49.868 127.208Q48.86 126.092 47.492000000000004 125.46199999999999Q46.124 124.832 44.396 124.832Q40.760000000000005 124.832 40.760000000000005 127.82Q40.760000000000005 129.11599999999999 41.57000000000001 129.764Q42.38 130.412 44.216 130.736L46.844 131.204Q49.903999999999996 131.744 51.56 133.50799999999998Q53.216 135.272 53.216 138.26Q53.216 140.024 52.604 141.518Q51.992000000000004 143.012 50.768 144.11Q49.544 145.208 47.762 145.82Q45.980000000000004 146.432 43.604 146.432Z"/><path d="M151.93599999999998 146.0V120.872H161.65599999999998Q163.492 120.872 164.932 121.43Q166.37199999999999 121.988 167.36199999999997 123.032Q168.35199999999998 124.076 168.856 125.55199999999999Q169.35999999999999 127.028 169.35999999999999 128.864Q169.35999999999999 130.7 168.856 132.176Q168.35199999999998 133.652 167.36199999999997 134.696Q166.37199999999999 135.74 164.932 136.298Q163.492 136.856 161.65599999999998 136.856H157.37199999999999V146.0ZM157.37199999999999 132.5H160.28799999999998Q162.196 132.5 162.934 131.78Q163.672 131.06 163.672 129.404V128.324Q163.672 126.668 162.934 125.94800000000001Q162.196 125.22800000000001 160.28799999999998 125.22800000000001H157.37199999999999Z"/><path d="M263.86 146.0 262.276 139.952H255.39999999999998L253.85199999999998 146.0H248.38L255.184 120.872H262.816L269.62 146.0ZM259.0 126.092H258.712L256.264 135.596H261.448Z"/><path d="M358.57599999999996 146.432Q353.536 146.432 351.106 143.02999999999997Q348.676 139.628 348.676 133.436Q348.676 127.244 351.106 123.842Q353.536 120.44 358.57599999999996 120.44Q360.52 120.44 362.014 120.962Q363.508 121.48400000000001 364.58799999999997 122.42Q365.668 123.356 366.37 124.688Q367.072 126.02000000000001 367.46799999999996 127.676L362.428 128.9Q362.212 128.0 361.924 127.244Q361.63599999999997 126.488 361.186 125.94800000000001Q360.736 125.408 360.07 125.102Q359.404 124.796 358.46799999999996 124.796Q356.272 124.796 355.354 126.506Q354.436 128.216 354.436 131.24V135.632Q354.436 138.656 355.354 140.36599999999999Q356.272 142.076 358.46799999999996 142.076Q360.34 142.076 361.186 140.92399999999998Q362.032 139.772 362.428 137.972L367.46799999999996 139.196Q367.072 140.852 366.37 142.184Q365.668 143.516 364.58799999999997 144.47Q363.508 145.424 362.014 145.928Q360.52 146.432 358.57599999999996 146.432Z"/><path d="M431.08 146.0V120.872H447.13599999999997V125.3H436.47999999999996V131.06H446.776V135.488H436.47999999999996V141.572H447.13599999999997V146.0Z"/></g></svg>